<svg xmlns="http://www.w3.org/2000/svg" width="23.595" height="20.629" viewBox="0 0 23.595 20.629"><defs><style>.a{fill:#6e48aa;}</style></defs><g transform="translate(-9.975 -967.4)"><path class="a" d="M16.239,967.4a6.141,6.141,0,0,0-4.427,1.859,6.431,6.431,0,0,0,0,9l9.326,9.5a.856.856,0,0,0,1.24,0h0c3.128-3.158,6.227-6.345,9.355-9.5a6.431,6.431,0,0,0,0-9,6.235,6.235,0,0,0-8.883,0l-1.092,1.121-1.092-1.121a6.141,6.141,0,0,0-4.427-1.859Zm0,1.741a4.454,4.454,0,0,1,3.187,1.358l1.741,1.771a.856.856,0,0,0,1.24,0h0l1.712-1.741a4.4,4.4,0,0,1,6.345,0,4.668,4.668,0,0,1,0,6.522c-2.892,2.951-5.814,5.9-8.706,8.883l-8.677-8.913a4.668,4.668,0,0,1,0-6.522,4.389,4.389,0,0,1,3.158-1.358Z"/></g></svg>