<svg xmlns="http://www.w3.org/2000/svg" width="25.724" height="17.15" viewBox="0 0 25.724 17.15"><defs><style>.a{fill:#6e48aa;}</style></defs><g transform="translate(0 -4)"><path class="a" d="M9.647,10.431a.973.973,0,0,1-.75-.322L5.359,6.572,1.822,10.11a1.036,1.036,0,0,1-1.5,0,1.036,1.036,0,0,1,0-1.5L4.609,4.322a1.036,1.036,0,0,1,1.5,0L10.4,8.609a1.036,1.036,0,0,1,0,1.5A.973.973,0,0,1,9.647,10.431ZM20.365,21.15a.973.973,0,0,1-.75-.322l-4.287-4.287a1.061,1.061,0,1,1,1.5-1.5l3.537,3.537L23.9,15.04a1.061,1.061,0,1,1,1.5,1.5l-4.287,4.287A.973.973,0,0,1,20.365,21.15Zm-7.5,0H6.431a2.15,2.15,0,0,1-2.144-2.144V5.072A1.013,1.013,0,0,1,5.359,4,1.013,1.013,0,0,1,6.431,5.072V19.006h6.431a1.072,1.072,0,0,1,0,2.144Zm7.5,0a1.013,1.013,0,0,1-1.072-1.072V6.144H12.862A1.013,1.013,0,0,1,11.79,5.072,1.013,1.013,0,0,1,12.862,4h6.431a2.15,2.15,0,0,1,2.144,2.144V20.078A1.013,1.013,0,0,1,20.365,21.15Z"/></g></svg>