<svg xmlns="http://www.w3.org/2000/svg" width="25.429" height="17.15" viewBox="0 0 25.429 17.15"><defs><style>.a{fill:#6e48aa;}</style></defs><g transform="translate(-7 -973.4)"><path class="a" d="M9.661,973.4A2.688,2.688,0,0,0,7,976.061v11.827a2.688,2.688,0,0,0,2.661,2.661H29.768a2.688,2.688,0,0,0,2.661-2.661V976.061a2.688,2.688,0,0,0-2.661-2.661Zm.237,1.774H29.561l-9.255,8.042a.8.8,0,0,1-1.153,0Zm-1.124,1.36,6.268,5.441-6.268,5.884Zm21.881.03v11.3L24.386,982l6.268-5.441Zm-7.6,6.594,5.973,5.588H10.4l5.973-5.588,1.6,1.39a2.688,2.688,0,0,0,3.489,0Z"/></g></svg>