<svg xmlns="http://www.w3.org/2000/svg" width="27.357" height="22.443" viewBox="0 0 27.357 22.443"><defs><style>.a{fill:#6e48aa;}</style></defs><g transform="translate(-2.421 -11)"><path class="a" d="M4.256,33.443a1.844,1.844,0,0,1-1.381-3.05A18.265,18.265,0,0,0,5.148,26.94,8.588,8.588,0,0,1,2.961,21.3C2.99,15.6,9,11,16.4,11c7.366,0,13.379,4.6,13.379,10.3S23.764,31.6,16.4,31.6a17.362,17.362,0,0,1-4.575-.6A30.169,30.169,0,0,1,4.6,33.443ZM16.4,12.611C9.9,12.611,4.6,16.5,4.6,21.3a7.261,7.261,0,0,0,2.129,4.978.836.836,0,0,1,.144.921,21.22,21.22,0,0,1-2.762,4.258.268.268,0,0,0-.029.288.214.214,0,0,0,.23.115,29.223,29.223,0,0,0,7.078-2.446.805.805,0,0,1,.575-.058,14.946,14.946,0,0,0,4.4.633c6.5,0,11.768-3.913,11.768-8.689S22.872,12.611,16.4,12.611Z"/></g></svg>