<svg xmlns="http://www.w3.org/2000/svg" width="19.878" height="16.155" viewBox="0 0 19.878 16.155"><defs><style>.a{fill:#fff;}</style></defs><path class="a" d="M87.218,90.842a8.144,8.144,0,0,1-2.342.642,4.09,4.09,0,0,0,1.793-2.256,8.152,8.152,0,0,1-2.59.99,4.082,4.082,0,0,0-6.949,3.72,11.579,11.579,0,0,1-8.406-4.261,4.084,4.084,0,0,0,1.262,5.445,4.057,4.057,0,0,1-1.848-.51v.052a4.08,4.08,0,0,0,3.271,4,4.09,4.09,0,0,1-1.075.143,4.042,4.042,0,0,1-.767-.073,4.082,4.082,0,0,0,3.81,2.832,8.184,8.184,0,0,1-5.065,1.746,8.422,8.422,0,0,1-.973-.057,11.6,11.6,0,0,0,17.854-9.771q0-.265-.012-.528A8.288,8.288,0,0,0,87.218,90.842Z" transform="translate(-67.34 -88.93)"/></svg>