<svg xmlns="http://www.w3.org/2000/svg" width="91.316" height="23.198" viewBox="0 0 91.316 23.198"><defs><style>.a{fill:#fff;}</style></defs><g transform="translate(45.658 11.599)"><g transform="translate(-45.658 -11.599)"><g transform="translate(24.233)"><path class="a" d="M132.3,38.992h-6.185V32.026h-5.129v6.966H114.8V20.1h6.185v6.839h5.151V20.1h6.185Z" transform="translate(-114.8 -15.857)"/><path class="a" d="M209.475,11.188A5.463,5.463,0,0,1,205,9.414l1.52-2.153a3.7,3.7,0,0,0,2.639,1.2c.654,0,1.6-.317,1.6-1.267s-.887-1.267-1.6-1.267a4.454,4.454,0,0,0-2.069.549l-1.456-.908L206.351,0H213.7V2.7h-4.623l-.169,1.034a4.087,4.087,0,0,1,5.3,3.441C214.2,9.9,211.776,11.188,209.475,11.188Z" transform="translate(-185.96)"/><path class="a" d="M273.072,20.1l-6.565,11.5v7.388h-6.164V31.6L253.8,20.121h6.839l2.786,6.375,2.807-6.375Z" transform="translate(-224.459 -15.857)"/><path class="a" d="M368.7,38.992h-7.114l-3-6.312h-.8v6.29H351.6V20.1h8.211a9.177,9.177,0,0,1,5.467,1.372,5.573,5.573,0,0,1,2.322,4.644,6.085,6.085,0,0,1-3.145,5.7Zm-8.021-13.868a2.142,2.142,0,0,0-1.372-.359h-1.562v3.272H359.3a2.158,2.158,0,0,0,1.372-.338,1.393,1.393,0,0,0,.676-1.309,1.372,1.372,0,0,0-.676-1.288Z" transform="translate(-301.615 -15.857)"/></g><path class="a" d="M21.256,27.995l1.435-5.383H20.18l.675-2.512H15.473L14.8,22.612H11.631l.675-2.512H6.924l-.675,2.512H3.736L2.3,27.995H4.792l-.844,3.166H1.435L0,36.544H2.512l-.675,2.512H7.219l.675-2.512h3.166l-.675,2.512h5.383l.675-2.512h2.512l1.435-5.383H17.9l.844-3.166Zm-8.739,3.166H9.351l.844-3.166h3.166Z" transform="translate(0 -15.857)"/></g></g></svg>