<svg xmlns="http://www.w3.org/2000/svg" width="21.737" height="34.047" viewBox="0 0 21.737 34.047"><defs><style>.a{fill:#fff;}</style></defs><g transform="translate(56.981 -21.2) rotate(90)"><path class="a" d="M40.483,56.962a4.194,4.194,0,0,0,3.857-2.849,2.879,2.879,0,0,0,.044-2.191,2.95,2.95,0,0,0,.657-.614,3.755,3.755,0,0,0,.92-3.243c-.044-.131-.088-.219-.131-.351.088-.088.175-.131.263-.219a4.281,4.281,0,0,0,1.359-2.454,3.77,3.77,0,0,0,.044-.7h4.295a3.161,3.161,0,0,0,3.374-2.41,2.919,2.919,0,0,0-.57-2.542,3.247,3.247,0,0,0-2.5-1.183h-12.4a3.889,3.889,0,0,0-2.761-2.8,4.656,4.656,0,0,0-1.709-.131h-5.39a11.269,11.269,0,0,0-5.215,1.665l-.175.088a5.852,5.852,0,0,0-3.068,3.9,7.682,7.682,0,0,0-.175,1.972v6.968a5.767,5.767,0,0,0,1.841,4.251c1.534,1.49,3.769,2.1,5.96,2.5a26.452,26.452,0,0,0,5.872.351Zm-5.7-1.972a27.883,27.883,0,0,1-5.434-.307c-1.884-.394-3.813-.876-5-2.016a4.051,4.051,0,0,1-1.227-2.849V42.894a8.019,8.019,0,0,1,.088-1.49,4.007,4.007,0,0,1,2.06-2.629l.219-.131A9.632,9.632,0,0,1,29.79,37.2h5.434a4.455,4.455,0,0,1,1.139.088,1.819,1.819,0,0,1,1.183.92H33.164a1.008,1.008,0,1,0,0,2.016H52.052a1.164,1.164,0,0,1,.964.482,1.062,1.062,0,0,1,.175.876c-.131.57-.614.876-1.446.876H42.762a1.008,1.008,0,1,0,0,2.016h2.761a.935.935,0,0,1,0,.351,2.289,2.289,0,0,1-.7,1.271,3.428,3.428,0,0,1-2.454.57h-.351a1.008,1.008,0,1,0,0,2.016H43.55a1.965,1.965,0,0,1,.526.044,2.016,2.016,0,0,1-.526,1.4,2.237,2.237,0,0,1-1.665.789h-.876A1.019,1.019,0,0,0,40,51.922a.992.992,0,0,0,1.008,1.008h1.578c.044.044.044.263-.088.745a2.277,2.277,0,0,1-2.06,1.49C39.475,54.99,35.224,54.99,34.786,54.99Z" transform="translate(0)"/></g></svg>